<?xml version="1.0" encoding="UTF-8"?>
<svg width="112px" height="150px" viewBox="0 0 112 150" version="1.1" xmlns="http://www.w3.org/2000/svg" xmlns:xlink="http://www.w3.org/1999/xlink">
    <!-- Generator: Sketch 64 (93537) - https://sketch.com -->
    <title>Durazno_isotipo_naranja_verde@1x</title>
    <desc>Created with Sketch.</desc>
    <g id="Page-1" stroke="none" stroke-width="1" fill="none" fill-rule="evenodd">
        <g id="Durazno_isotipo_naranja_verde" transform="translate(0.837129, 0.579510)">
            <path d="M70.4820954,45.8229698 C71.3573754,51.8172098 75.6329754,51.5248898 78.5326554,50.4295298 C86.8856154,47.2744898 98.8438554,43.4541698 104.075375,34.9113698 C104.179535,34.7450498 104.276975,34.5686498 104.367695,34.3956098 C109.901615,23.6704898 110.392175,12.2296898 106.880975,2.01528979 C106.156895,-0.0897502065 103.398335,-0.702950207 101.886335,0.931689793 C92.4850554,11.1108098 71.2347354,5.38704979 69.3884154,28.4097698 C69.380073,28.5088898 69.3783354,28.5979298 69.3816954,28.6970498 C69.4320954,30.0729698 69.8739354,41.6515298 70.4820954,45.8229698" id="Fill-2" fill="#7DD934"></path>
            <path d="M72.6296394,115.250146 L72.6279594,115.250146 C58.0018794,126.571666 35.6393994,121.182226 28.7043594,102.016786 C28.2608394,100.785346 27.9281994,99.5119058 27.7148394,98.2199858 C25.9121994,87.3335858 30.0248394,77.1141458 38.2215594,70.7704658 C47.1389994,63.8673458 58.9292394,63.1785458 68.3473194,68.0320658 C73.9534794,70.9216658 78.7246794,75.7802258 81.5369994,82.4582258 C82.5080394,84.7648658 83.1346794,87.2159858 83.3917194,89.7057458 C84.4400394,99.8714258 80.3441994,109.279426 72.6296394,115.250146 M109.075559,106.934146 C113.386439,89.9644658 109.735799,72.6302258 99.2559594,59.0843858 C99.2324394,59.0558258 99.2089194,59.0272658 99.1870794,58.9970258 C95.6439594,54.4391858 89.3456394,53.0498258 84.1090794,55.4791058 C81.6579594,56.6147858 79.1379594,57.5908658 76.5608394,58.4023058 C73.1369994,59.4791858 69.4577994,57.7571858 68.0919594,54.4391858 C67.1007594,52.0367858 66.2657994,49.5856658 65.5887594,47.0975858 C64.0364394,41.4040658 58.8099594,37.4157458 52.9165194,37.6744658 C39.8209194,38.2473458 26.7857994,43.4435858 16.4353194,53.6210258 C9.23819945,60.6971858 4.08563945,69.6902258 1.67147945,79.4913458 C-2.47812055,96.3299858 1.19771945,113.496226 11.5952394,126.936226 C16.6251594,133.437826 22.8932394,138.635746 29.9878794,142.293106 C35.6696394,145.219666 41.8789194,147.160066 48.4090794,147.991666 C65.3972394,150.157186 82.1854794,144.515746 94.6275594,132.197986 C101.629799,125.264626 106.651319,116.486626 109.075559,106.934146" id="Fill-4" fill="#FF4B1F"></path>
        </g>
    </g>
</svg>